<svg xmlns="http://www.w3.org/2000/svg" width="28" height="28" viewBox="0 0 28 28">
    <g fill="none" fill-rule="evenodd">
        <g fill="#FFF">
            <path d="M24.318.036c-.93.138-1.752.68-2.251 1.477l-12.13 18.67-4.804-3.424c-.7-.503-1.573-.709-2.42-.566-.85.138-1.61.613-2.113 1.313-.499.701-.7 1.574-.553 2.422.142.852.62 1.607 1.32 2.102l7.526 5.372c.717.512 1.61.705 2.474.541.86-.168 1.618-.675 2.096-1.41L27.441 5.038c.683-1.007.746-2.312.155-3.374C27.01.598 25.87-.044 24.653.002c-.112.005-.226.017-.335.034z"/>
        </g>
    </g>
</svg>
