<svg xmlns="http://www.w3.org/2000/svg" width="42" height="42" viewBox="0 0 42 42">
    <g fill="none" fill-rule="evenodd">
        <g fill="#FFF">
            <path d="M22.808 3c2.136 0 3.897 1.758 3.897 3.912v.921c1.018.45 1.984 1.01 2.88 1.667l.792-.462c1.855-1.065 4.225-.431 5.296 1.418v.001l1.807 3.125c1.069 1.852.434 4.219-1.42 5.29l-.8.462c.13 1.106.13 2.224 0 3.331l.8.461c1.854 1.072 2.49 3.438 1.421 5.29v.002l-1.805 3.125c-1.071 1.85-3.441 2.484-5.296 1.417l.001-.001-.795-.461c-.899.659-1.863 1.217-2.881 1.669v.92c0 2.155-1.76 3.913-3.898 3.913h-3.614c-2.135 0-3.895-1.758-3.895-3.91v-.922c-1.018-.451-1.984-1.01-2.881-1.668l-.791.462c-1.856 1.066-4.225.431-5.298-1.418v-.001l-1.807-3.125c-.517-.889-.656-1.948-.387-2.94.263-.992.913-1.838 1.806-2.35l.8-.462c-.128-1.106-.128-2.224 0-3.331l-.8-.461c-1.853-1.072-2.488-3.438-1.42-5.292l1.808-3.126c.514-.889 1.36-1.538 2.353-1.803.992-.266 2.05-.126 2.94.387l-.001.001.797.461c.898-.659 1.863-1.217 2.88-1.669v-.92C15.298 4.757 17.059 3 19.194 3zm-.001 2.601h-3.613c-.683 0-1.29.608-1.29 1.31V9.64l-.85.308c-1.337.478-2.577 1.197-3.657 2.12l-.704.595-2.371-1.367c-.606-.348-1.38-.14-1.73.465l-1.808 3.124c-.349.605-.14 1.377.464 1.727l2.365 1.364-.164.907c-.255 1.401-.255 2.835 0 4.236l.164.904-2.367 1.363c-.604.349-.811 1.122-.462 1.728L8.59 30.24c.35.604 1.123.81 1.729.463l2.373-1.367.698.597c1.08.922 2.32 1.64 3.661 2.117h-.001l.853.31v2.728c0 .706.606 1.31 1.29 1.31h3.615c.684 0 1.291-.607 1.291-1.31V32.36l.85-.308c1.338-.478 2.577-1.197 3.657-2.12l.704-.596 2.371 1.367c.606.349 1.38.14 1.73-.464l1.808-3.125c.349-.604.14-1.376-.464-1.727l-2.365-1.364.164-.905c.255-1.401.255-2.837 0-4.237l-.164-.905 2.365-1.364c.605-.35.813-1.122.464-1.727v-.001l-1.807-3.125c-.35-.603-1.122-.81-1.728-.463l-2.371 1.369-.699-.596c-1.081-.924-2.322-1.643-3.661-2.12l-.853-.31V6.913c0-.706-.607-1.31-1.293-1.31zm-1.805 7.63c2.063 0 4.041.82 5.5 2.276 1.46 1.457 2.279 3.433 2.279 5.493 0 2.06-.82 4.036-2.279 5.493-1.459 1.457-3.437 2.275-5.5 2.275-2.064-.003-4.04-.821-5.498-2.278-1.46-1.456-2.279-3.43-2.281-5.49 0-2.06.82-4.036 2.278-5.493 1.459-1.457 3.438-2.275 5.5-2.275zm0 2.61c-1.37 0-2.683.545-3.652 1.513-.969.967-1.514 2.278-1.515 3.646 0 1.369.543 2.68 1.512 3.65.97.967 2.284 1.51 3.655 1.51 1.37.001 2.684-.543 3.653-1.51.968-.968 1.513-2.28 1.513-3.648 0-1.369-.543-2.682-1.513-3.65-.97-.967-2.283-1.51-3.653-1.51z"/>
        </g>
    </g>
</svg>
