<svg xmlns="http://www.w3.org/2000/svg" width="42" height="42" viewBox="0 0 42 42">
    <g fill="none" fill-rule="evenodd">
        <g fill="#FFF">
            <path d="M10.09 23.334c.483 0 .945.192 1.286.536.34.344.533.81.533 1.296v11c0 .487-.192.954-.533 1.298-.341.343-.803.536-1.285.536H2.817C1.813 38 1 37.178 1 36.166v-11c0-1.012.813-1.832 1.817-1.832h7.274zM24.637 5c.482 0 .946.192 1.287.536.34.344.532.812.532 1.298v29.332c0 .487-.191.954-.532 1.298-.341.343-.805.536-1.287.536h-7.272c-1.004 0-1.819-.822-1.819-1.834V6.834c0-1.012.815-1.834 1.82-1.834h7.27zm14.547 9.166c.482 0 .944.194 1.285.538.341.344.532.81.532 1.296v20.166c0 .487-.19.954-.532 1.298-.34.343-.803.536-1.285.536h-7.274c-1.004 0-1.818-.822-1.818-1.834V16c0-1.012.814-1.834 1.818-1.834h7.274zM8.272 27H4.636v7.334h3.636V27zM22.819 8.666H19.18v25.668h3.636l.002-25.668zm14.545 9.168h-3.636v16.5h3.636v-16.5z"/>
        </g>
    </g>
</svg>
