<svg xmlns="http://www.w3.org/2000/svg" width="42" height="42" viewBox="0 0 42 42">
    <g fill="none" fill-rule="evenodd">
        <g fill="#FFF">
            <path d="M38.4 35.593l-8.827-8.84c4.439-5.777 3.996-14.124-1.332-19.407C25.331 4.433 21.582 3 17.785 3c-3.798 0-7.548 1.431-10.457 4.346-5.77 5.777-5.77 15.16 0 20.937 2.91 2.912 6.659 4.346 10.457 4.346 3.156 0 6.314-.988 8.929-3.014l8.876 8.793c.395.395.888.592 1.43.592.493 0 1.036-.197 1.43-.592.741-.74.741-2.026-.049-2.815zM17.834 28.63c-2.91 0-5.575-1.136-7.646-3.16-4.193-4.197-4.193-11.06 0-15.308 2.023-2.025 4.736-3.16 7.646-3.16 2.909 0 5.574 1.137 7.645 3.16 2.071 2.025 3.156 4.741 3.156 7.654 0 2.913-1.135 5.58-3.156 7.654-2.023 2.074-4.784 3.16-7.645 3.16z"/>
        </g>
    </g>
</svg>
