<svg xmlns="http://www.w3.org/2000/svg" width="28" height="28" viewBox="0 0 28 28">
    <g fill="none" fill-rule="evenodd">
        <g fill="#FFF">
            <path d="M24.342 2C26.35 2 28 3.628 28 5.61v10.685c0 1.983-1.65 3.61-3.658 3.61H12.14l-4.155 5.75c-.472.653-1.508.313-1.51-.476l-.002-5.273H3.658C1.65 19.906 0 18.278 0 16.296V5.61C0 3.628 1.65 2 3.658 2h20.684zM22 13H5c-.552 0-1 .448-1 1s.448 1 1 1h17c.552 0 1-.448 1-1s-.448-1-1-1zm0-6H5c-.552 0-1 .448-1 1s.448 1 1 1h17c.552 0 1-.448 1-1s-.448-1-1-1z"/>
        </g>
    </g>
</svg>
