<svg xmlns="http://www.w3.org/2000/svg" width="28" height="28" viewBox="0 0 28 28">
    <g fill="none" fill-rule="evenodd">
        <g fill="#FFF">
            <path d="M14 0c7.72 0 14 6.28 14 14s-6.28 14-14 14S0 21.72 0 14 6.28 0 14 0zm0 1.556C7.138 1.556 1.556 7.138 1.556 14c0 6.862 5.582 12.444 12.444 12.444 6.862 0 12.444-5.582 12.444-12.444 0-6.862-5.582-12.444-12.444-12.444zm0 7c.43 0 .778.347.778.777v3.89h3.889c.43 0 .777.347.777.777 0 .43-.347.778-.777.778h-3.89v3.889c0 .43-.347.777-.777.777-.43 0-.778-.347-.778-.777v-3.89H9.333c-.43 0-.777-.347-.777-.777 0-.43.347-.778.777-.778h3.89V9.333c0-.43.347-.777.777-.777z"/>
        </g>
    </g>
</svg>
