<svg xmlns="http://www.w3.org/2000/svg" width="42" height="42" viewBox="0 0 42 42">
    <g fill="none" fill-rule="evenodd">
        <g fill="#FFF">
            <path d="M38.91 16.103c-.197-.54-.685-.92-1.257-.98-.074 0-6.816-.701-10.836-1.053L22.376 3.905c-.217-.567-.774-.931-1.38-.904-.598.003-1.139.36-1.373.912l-4.328 10.124c-4.013.348-10.878 1.053-10.952 1.06v.002c-.569.06-1.054.438-1.252.974-.196.537-.07 1.14.324 1.552l7.968 8.211c-.863 3.611-2.739 11.31-2.739 11.31-.146.6.091 1.23.598 1.584.507.353 1.18.36 1.694.017l10.052-6.75 10.053 6.75c.514.344 1.185.336 1.692-.017.507-.354.746-.984.6-1.584 0 0-1.864-7.654-2.735-11.272l7.978-8.215c.4-.412.53-1.017.335-1.556zm-11.04 8.272c-.353.369-.495.893-.375 1.391.428 1.796 1.328 5.509 2.018 8.348l-7.688-5.157c-.507-.34-1.168-.34-1.673 0l-7.682 5.167c.695-2.858 1.601-6.596 2.025-8.377h.001c.12-.498-.022-1.022-.375-1.391l-6.376-6.567c2.674-.266 6.455-.637 8.709-.821v.001c.555-.045 1.039-.395 1.256-.908l3.32-7.759 3.394 7.785c.222.506.7.847 1.249.894 2.25.187 5.96.55 8.588.814l-6.39 6.58z"/>
        </g>
    </g>
</svg>
