<svg xmlns="http://www.w3.org/2000/svg" width="36" height="28" viewBox="0 0 36 28">
    <g fill="none" fill-rule="evenodd">
        <g fill="#FFF">
            <path d="M32.136 3.432c.115.167.177.365.177.568l.005 19.064c0 .552-.447 1-1 1-.214 0-.423-.068-.595-.196L18.316 14.68l.002 8.385c0 .552-.447 1-1 1-.214 0-.423-.068-.595-.196L3.405 14.005c-.444-.33-.537-.955-.209-1.4.066-.087.145-.164.236-.227l13.313-9.2c.454-.315 1.077-.2 1.39.254.116.167.178.365.178.568l.002 7.767 12.43-8.59c.454-.314 1.077-.2 1.39.255z"/>
        </g>
    </g>
</svg>
