<svg xmlns="http://www.w3.org/2000/svg" width="42" height="42" viewBox="0 0 42 42">
    <g fill="none" fill-rule="evenodd">
        <g fill="#FFF">
            <path d="M25.247 12.018c0 .764-.46 1.455-1.167 1.747-.706.292-1.52.132-2.06-.41-.542-.541-.702-1.354-.41-2.06s.981-1.167 1.747-1.167c.501 0 .98.198 1.336.553.354.355.554.836.554 1.337zM20.974 27.31l2.609-9.737c.483-1.802-2.284-2.546-4.074-1.682h.002c-1.117.543-2.07 1.372-2.758 2.407 1.125-.494 3.634-1.611 2.722 1.795l-2.61 9.74c-.482 1.8 2.285 2.544 4.074 1.68v-.001c1.117-.54 2.069-1.372 2.756-2.405-1.123.494-3.634 1.611-2.721-1.797zM39 21c0 4.774-1.897 9.352-5.272 12.728C30.351 37.103 25.773 39 21 39s-9.352-1.897-12.728-5.272C4.897 30.351 3 25.773 3 21s1.897-9.352 5.272-12.728C11.649 4.897 16.227 3 21 3c4.772.005 9.347 1.903 12.722 5.278C37.097 11.653 38.996 16.228 39 21zm-2.4 0c0-4.138-1.644-8.105-4.569-11.031C29.105 7.044 25.138 5.4 21 5.4c-4.138 0-8.105 1.644-11.031 4.569C7.044 12.895 5.4 16.862 5.4 21c0 4.138 1.644 8.105 4.569 11.031C12.895 34.956 16.862 36.6 21 36.6c4.136-.005 8.102-1.65 11.025-4.575C34.95 29.1 36.595 25.135 36.6 21z"/>
        </g>
    </g>
</svg>
