<svg xmlns="http://www.w3.org/2000/svg" width="28" height="28" viewBox="0 0 28 28">
    <g fill="none" fill-rule="evenodd">
        <g fill="#FFF">
            <path d="M2.27 1C1.026 1 0 2.037 0 3.294v21.412C0 25.963 1.026 27 2.27 27h23.46c1.244 0 2.27-1.037 2.27-2.294V3.294C28 2.037 26.974 1 25.73 1H2.27zm0 1.53h4.777l-3.24 3.823H1.514V3.294c0-.437.323-.765.756-.765zm6.776 0h5.569l-3.24 3.823h-5.57l3.24-3.824zm7.567 0h5.57l-3.24 3.823h-5.57l3.24-3.824zm7.568 0h1.549c.433 0 .756.327.756.764v3.059h-5.545l3.24-3.824zM1.514 7.881h24.972v16.824c0 .437-.323.765-.756.765H2.27c-.433 0-.756-.328-.756-.765V7.882zm9.873 3.214V21.48c2.743-1.731 5.486-3.455 8.23-5.186-2.744-1.73-5.487-3.466-8.23-5.198zm1.442 2.737l3.89 2.461-3.89 2.45v-4.911z"/>
        </g>
    </g>
</svg>
